<svg xmlns="http://www.w3.org/2000/svg" viewBox="0 0 200 200" width="200" height="200" role="img" aria-label="Iron-air battery: enclosure with iron-air cells">
<title>Iron-air battery: enclosure with iron-air cells</title>
<g stroke="#1f2a36" stroke-width="2.2" stroke-linejoin="round" stroke-linecap="round">
<rect x="12" y="176" width="176" height="8" rx="2" fill="#c9d3dc"/>
<rect x="20" y="62" width="160" height="114" rx="6" fill="#e8edf1"/>
<rect x="16" y="50" width="168" height="14" rx="3" fill="#9aa9b7"/>
<circle cx="52" cy="40" r="11" fill="#c9d3dc"/>
<path d="M52 40 L52 31 M52 40 L60 44 M52 40 L44 44" stroke-width="1.8"/>
<rect x="39" y="49" width="26" height="3" fill="#1f2a36" stroke="none"/>
<circle cx="100" cy="40" r="11" fill="#c9d3dc"/>
<path d="M100 40 L100 31 M100 40 L108 44 M100 40 L92 44" stroke-width="1.8"/>
<rect x="87" y="49" width="26" height="3" fill="#1f2a36" stroke="none"/>
<circle cx="148" cy="40" r="11" fill="#c9d3dc"/>
<path d="M148 40 L148 31 M148 40 L156 44 M148 40 L140 44" stroke-width="1.8"/>
<rect x="135" y="49" width="26" height="3" fill="#1f2a36" stroke="none"/>
<rect x="20" y="62" width="30" height="114" rx="6" fill="#c9d3dc"/>
<line x1="26" y1="80" x2="44" y2="80" stroke-width="1.4"/>
<line x1="26" y1="100" x2="44" y2="100" stroke-width="1.4"/>
<line x1="26" y1="120" x2="44" y2="120" stroke-width="1.4"/>
<line x1="26" y1="140" x2="44" y2="140" stroke-width="1.4"/>
<line x1="26" y1="160" x2="44" y2="160" stroke-width="1.4"/>
<rect x="58" y="70" width="25" height="46" rx="3" fill="#d5e7f0"/>
<path d="M58 80 q3 -2 6 0 t6 0 t6 0 t7 0" fill="none" stroke="#5b8fb0" stroke-width="1.3"/>
<line x1="61" y1="85" x2="80" y2="85" stroke="#2c5d8f" stroke-width="2.2"/>
<circle cx="62" cy="108" r="2.2" fill="#7a3a1e" stroke="none"/>
<circle cx="67" cy="108" r="2.2" fill="#b4532a" stroke="none"/>
<circle cx="72" cy="108" r="2.2" fill="#b4532a" stroke="none"/>
<circle cx="77" cy="108" r="2.2" fill="#7a3a1e" stroke="none"/>
<circle cx="64" cy="102" r="2.2" fill="#b4532a" stroke="none"/>
<circle cx="69" cy="102" r="2.2" fill="#b4532a" stroke="none"/>
<circle cx="74" cy="102" r="2.2" fill="#7a3a1e" stroke="none"/>
<circle cx="79" cy="102" r="2.2" fill="#b4532a" stroke="none"/>
<circle cx="62" cy="96" r="2.2" fill="#b4532a" stroke="none"/>
<circle cx="67" cy="96" r="2.2" fill="#7a3a1e" stroke="none"/>
<circle cx="72" cy="96" r="2.2" fill="#b4532a" stroke="none"/>
<circle cx="77" cy="96" r="2.2" fill="#b4532a" stroke="none"/>
<rect x="88" y="70" width="25" height="46" rx="3" fill="#d5e7f0"/>
<path d="M88 80 q3 -2 6 0 t6 0 t6 0 t7 0" fill="none" stroke="#5b8fb0" stroke-width="1.3"/>
<line x1="91" y1="85" x2="110" y2="85" stroke="#2c5d8f" stroke-width="2.2"/>
<circle cx="92" cy="108" r="2.2" fill="#b4532a" stroke="none"/>
<circle cx="97" cy="108" r="2.2" fill="#b4532a" stroke="none"/>
<circle cx="102" cy="108" r="2.2" fill="#7a3a1e" stroke="none"/>
<circle cx="107" cy="108" r="2.2" fill="#b4532a" stroke="none"/>
<circle cx="94" cy="102" r="2.2" fill="#b4532a" stroke="none"/>
<circle cx="99" cy="102" r="2.2" fill="#7a3a1e" stroke="none"/>
<circle cx="104" cy="102" r="2.2" fill="#b4532a" stroke="none"/>
<circle cx="109" cy="102" r="2.2" fill="#b4532a" stroke="none"/>
<circle cx="92" cy="96" r="2.2" fill="#7a3a1e" stroke="none"/>
<circle cx="97" cy="96" r="2.2" fill="#b4532a" stroke="none"/>
<circle cx="102" cy="96" r="2.2" fill="#b4532a" stroke="none"/>
<circle cx="107" cy="96" r="2.2" fill="#7a3a1e" stroke="none"/>
<rect x="118" y="70" width="25" height="46" rx="3" fill="#d5e7f0"/>
<path d="M118 80 q3 -2 6 0 t6 0 t6 0 t7 0" fill="none" stroke="#5b8fb0" stroke-width="1.3"/>
<line x1="121" y1="85" x2="140" y2="85" stroke="#2c5d8f" stroke-width="2.2"/>
<circle cx="122" cy="108" r="2.2" fill="#b4532a" stroke="none"/>
<circle cx="127" cy="108" r="2.2" fill="#7a3a1e" stroke="none"/>
<circle cx="132" cy="108" r="2.2" fill="#b4532a" stroke="none"/>
<circle cx="137" cy="108" r="2.2" fill="#b4532a" stroke="none"/>
<circle cx="124" cy="102" r="2.2" fill="#7a3a1e" stroke="none"/>
<circle cx="129" cy="102" r="2.2" fill="#b4532a" stroke="none"/>
<circle cx="134" cy="102" r="2.2" fill="#b4532a" stroke="none"/>
<circle cx="139" cy="102" r="2.2" fill="#7a3a1e" stroke="none"/>
<circle cx="122" cy="96" r="2.2" fill="#b4532a" stroke="none"/>
<circle cx="127" cy="96" r="2.2" fill="#b4532a" stroke="none"/>
<circle cx="132" cy="96" r="2.2" fill="#7a3a1e" stroke="none"/>
<circle cx="137" cy="96" r="2.2" fill="#b4532a" stroke="none"/>
<rect x="148" y="70" width="25" height="46" rx="3" fill="#d5e7f0"/>
<path d="M148 80 q3 -2 6 0 t6 0 t6 0 t7 0" fill="none" stroke="#5b8fb0" stroke-width="1.3"/>
<line x1="151" y1="85" x2="170" y2="85" stroke="#2c5d8f" stroke-width="2.2"/>
<circle cx="152" cy="108" r="2.2" fill="#7a3a1e" stroke="none"/>
<circle cx="157" cy="108" r="2.2" fill="#b4532a" stroke="none"/>
<circle cx="162" cy="108" r="2.2" fill="#b4532a" stroke="none"/>
<circle cx="167" cy="108" r="2.2" fill="#7a3a1e" stroke="none"/>
<circle cx="154" cy="102" r="2.2" fill="#b4532a" stroke="none"/>
<circle cx="159" cy="102" r="2.2" fill="#b4532a" stroke="none"/>
<circle cx="164" cy="102" r="2.2" fill="#7a3a1e" stroke="none"/>
<circle cx="169" cy="102" r="2.2" fill="#b4532a" stroke="none"/>
<circle cx="152" cy="96" r="2.2" fill="#b4532a" stroke="none"/>
<circle cx="157" cy="96" r="2.2" fill="#7a3a1e" stroke="none"/>
<circle cx="162" cy="96" r="2.2" fill="#b4532a" stroke="none"/>
<circle cx="167" cy="96" r="2.2" fill="#b4532a" stroke="none"/>
<rect x="58" y="124" width="25" height="46" rx="3" fill="#d5e7f0"/>
<path d="M58 134 q3 -2 6 0 t6 0 t6 0 t7 0" fill="none" stroke="#5b8fb0" stroke-width="1.3"/>
<line x1="61" y1="139" x2="80" y2="139" stroke="#2c5d8f" stroke-width="2.2"/>
<circle cx="62" cy="162" r="2.2" fill="#b4532a" stroke="none"/>
<circle cx="67" cy="162" r="2.2" fill="#b4532a" stroke="none"/>
<circle cx="72" cy="162" r="2.2" fill="#7a3a1e" stroke="none"/>
<circle cx="77" cy="162" r="2.2" fill="#b4532a" stroke="none"/>
<circle cx="64" cy="156" r="2.2" fill="#b4532a" stroke="none"/>
<circle cx="69" cy="156" r="2.2" fill="#7a3a1e" stroke="none"/>
<circle cx="74" cy="156" r="2.2" fill="#b4532a" stroke="none"/>
<circle cx="79" cy="156" r="2.2" fill="#b4532a" stroke="none"/>
<circle cx="62" cy="150" r="2.2" fill="#7a3a1e" stroke="none"/>
<circle cx="67" cy="150" r="2.2" fill="#b4532a" stroke="none"/>
<circle cx="72" cy="150" r="2.2" fill="#b4532a" stroke="none"/>
<circle cx="77" cy="150" r="2.2" fill="#7a3a1e" stroke="none"/>
<rect x="88" y="124" width="25" height="46" rx="3" fill="#d5e7f0"/>
<path d="M88 134 q3 -2 6 0 t6 0 t6 0 t7 0" fill="none" stroke="#5b8fb0" stroke-width="1.3"/>
<line x1="91" y1="139" x2="110" y2="139" stroke="#2c5d8f" stroke-width="2.2"/>
<circle cx="92" cy="162" r="2.2" fill="#b4532a" stroke="none"/>
<circle cx="97" cy="162" r="2.2" fill="#7a3a1e" stroke="none"/>
<circle cx="102" cy="162" r="2.2" fill="#b4532a" stroke="none"/>
<circle cx="107" cy="162" r="2.2" fill="#b4532a" stroke="none"/>
<circle cx="94" cy="156" r="2.2" fill="#7a3a1e" stroke="none"/>
<circle cx="99" cy="156" r="2.2" fill="#b4532a" stroke="none"/>
<circle cx="104" cy="156" r="2.2" fill="#b4532a" stroke="none"/>
<circle cx="109" cy="156" r="2.2" fill="#7a3a1e" stroke="none"/>
<circle cx="92" cy="150" r="2.2" fill="#b4532a" stroke="none"/>
<circle cx="97" cy="150" r="2.2" fill="#b4532a" stroke="none"/>
<circle cx="102" cy="150" r="2.2" fill="#7a3a1e" stroke="none"/>
<circle cx="107" cy="150" r="2.2" fill="#b4532a" stroke="none"/>
<rect x="118" y="124" width="25" height="46" rx="3" fill="#d5e7f0"/>
<path d="M118 134 q3 -2 6 0 t6 0 t6 0 t7 0" fill="none" stroke="#5b8fb0" stroke-width="1.3"/>
<line x1="121" y1="139" x2="140" y2="139" stroke="#2c5d8f" stroke-width="2.2"/>
<circle cx="122" cy="162" r="2.2" fill="#7a3a1e" stroke="none"/>
<circle cx="127" cy="162" r="2.2" fill="#b4532a" stroke="none"/>
<circle cx="132" cy="162" r="2.2" fill="#b4532a" stroke="none"/>
<circle cx="137" cy="162" r="2.2" fill="#7a3a1e" stroke="none"/>
<circle cx="124" cy="156" r="2.2" fill="#b4532a" stroke="none"/>
<circle cx="129" cy="156" r="2.2" fill="#b4532a" stroke="none"/>
<circle cx="134" cy="156" r="2.2" fill="#7a3a1e" stroke="none"/>
<circle cx="139" cy="156" r="2.2" fill="#b4532a" stroke="none"/>
<circle cx="122" cy="150" r="2.2" fill="#b4532a" stroke="none"/>
<circle cx="127" cy="150" r="2.2" fill="#7a3a1e" stroke="none"/>
<circle cx="132" cy="150" r="2.2" fill="#b4532a" stroke="none"/>
<circle cx="137" cy="150" r="2.2" fill="#b4532a" stroke="none"/>
<rect x="148" y="124" width="25" height="46" rx="3" fill="#d5e7f0"/>
<path d="M148 134 q3 -2 6 0 t6 0 t6 0 t7 0" fill="none" stroke="#5b8fb0" stroke-width="1.3"/>
<line x1="151" y1="139" x2="170" y2="139" stroke="#2c5d8f" stroke-width="2.2"/>
<circle cx="152" cy="162" r="2.2" fill="#b4532a" stroke="none"/>
<circle cx="157" cy="162" r="2.2" fill="#b4532a" stroke="none"/>
<circle cx="162" cy="162" r="2.2" fill="#7a3a1e" stroke="none"/>
<circle cx="167" cy="162" r="2.2" fill="#b4532a" stroke="none"/>
<circle cx="154" cy="156" r="2.2" fill="#b4532a" stroke="none"/>
<circle cx="159" cy="156" r="2.2" fill="#7a3a1e" stroke="none"/>
<circle cx="164" cy="156" r="2.2" fill="#b4532a" stroke="none"/>
<circle cx="169" cy="156" r="2.2" fill="#b4532a" stroke="none"/>
<circle cx="152" cy="150" r="2.2" fill="#7a3a1e" stroke="none"/>
<circle cx="157" cy="150" r="2.2" fill="#b4532a" stroke="none"/>
<circle cx="162" cy="150" r="2.2" fill="#b4532a" stroke="none"/>
<circle cx="167" cy="150" r="2.2" fill="#7a3a1e" stroke="none"/>
<path d="M76 58 V66" stroke="#2c5d8f" stroke-width="2"/><path d="M73 63 L76 67 L79 63" fill="none" stroke="#2c5d8f" stroke-width="2"/>
<path d="M136 58 V66" stroke="#2c5d8f" stroke-width="2"/><path d="M133 63 L136 67 L139 63" fill="none" stroke="#2c5d8f" stroke-width="2"/>
</g>
</svg>
